<svg viewBox="0 0 134 52" xmlns="http://www.w3.org/2000/svg" xmlns:xlink="http://www.w3.org/1999/xlink" width="134.000000" height="52.000000" fill="none">
	<rect id="logoWOH 2" width="134.000000" height="52.000000" x="0.000000" y="0.000000" fill="rgb(255,255,255)" fill-opacity="0" />
	<g id="g10">
		<g id="g12">
			<path id="path14" d="M68.6305 38.5579C68.259 38.5073 67.7581 38.425 67.5173 38.3747L67.0796 38.2835L67.5549 38.0093C67.8163 37.8584 68.1652 37.6482 68.3303 37.5421C68.6297 37.3497 68.6319 37.3495 69.1183 37.4605C69.7482 37.6042 71.8921 37.6242 72.5705 37.4927C76.0652 36.8153 77.8804 34.624 78.8374 29.9276C79.3485 27.4192 79.5463 24.9819 79.6015 20.5108C79.7622 7.50224 78.009 2.46174 72.9211 1.30509C71.9248 1.0786 69.9077 1.08015 68.9033 1.30819C65.499 2.08124 63.7057 4.58296 62.8545 9.74677C62.4073 12.4596 62.2572 14.8801 62.258 19.367C62.2589 23.8523 62.4092 26.2855 62.851 28.9663C63.5481 33.1956 64.9616 35.7524 67.1821 36.8005C67.4204 36.913 67.6159 37.0227 67.6164 37.0443C67.6169 37.066 67.213 37.2803 66.7186 37.5207L65.8199 37.9577L65.274 37.7867C63.9612 37.3755 62.415 36.6347 61.1633 35.8172C58.6875 34.2002 56.8067 32.1648 55.462 29.6472C53.5118 25.9958 52.8107 22.0661 53.1835 16.8761L53.2299 16.2301L53.5756 16.5463C54.2834 17.1936 54.9681 17.438 55.9615 17.3976L56.5339 17.3744L56.7547 17.7409C56.8761 17.9426 57.5519 19.1381 58.2565 20.3977C58.9612 21.6573 59.6176 22.8138 59.7154 22.9675C59.9241 23.2959 60.1727 23.4272 60.4541 23.3578C60.633 23.3137 60.6519 23.2805 60.6174 23.0717C60.596 22.9418 60.3082 22.271 59.9781 21.5809C59.2354 20.0288 57.7781 16.6451 57.4656 15.7473C57.3377 15.3801 57.2552 15.0231 57.2822 14.954C57.393 14.6699 57.8782 14.8972 58.7807 15.6563C59.2217 16.0273 59.523 16.1026 59.5712 15.8539C59.6098 15.6544 59.0269 15.0133 58.4863 14.6606C57.6577 14.12 57.0073 14.0378 56.6146 14.424C56.4745 14.5617 56.4354 14.679 56.4354 14.9615C56.4354 15.1602 56.4719 15.4259 56.5166 15.552C56.701 16.0723 56.5494 16.0244 55.9931 15.3865C55.333 14.6298 54.596 14.0625 54.0499 13.891C53.5875 13.7458 53.5914 13.8586 54.001 12.4667C54.8815 9.47489 56.7171 6.47377 58.8339 4.56473C61.4198 2.23282 64.3443 0.82214 67.8521 0.214626C69.0229 0.0118971 71.4819 -0.0650739 72.7312 0.0618613C77.9434 0.591298 82.5885 3.30335 85.4259 7.47346C86.0889 8.4479 87.1165 10.4963 87.5054 11.618C87.9452 12.8874 88.479 15.0863 88.4802 15.6345C88.4806 15.7907 88.1641 15.4755 87.6708 14.8283C87.4389 14.5239 87.1652 14.1834 87.0627 14.0719C86.8546 13.8452 86.5294 13.8016 86.3788 13.9801C86.2655 14.1142 86.2654 14.114 87.6842 17.0596L88.7056 19.1802L88.7054 20.0854C88.705 21.2471 88.5987 22.4023 88.3624 23.8123C87.7238 27.6215 86.0526 31.0357 83.6062 33.5289C80.8337 36.3545 77.381 38.0251 73.2233 38.553C72.154 38.6888 69.6123 38.6915 68.6305 38.5579ZM0 37.4519C0 37.2023 0.014184 37.191 0.772159 36.8314C1.84323 36.3234 2.26529 35.9353 2.66995 35.0862C2.89757 34.6086 3.64383 32.2458 5.32721 26.6731C6.61457 22.4112 7.85667 18.3028 8.08744 17.5433L8.50696 16.1624L9.07521 16.1411L9.64354 16.1198L9.63379 15.8301C9.62208 15.4796 9.46448 15.3449 9.06636 15.3449C8.90914 15.3449 8.7805 15.3238 8.7805 15.298C8.7805 15.2722 9.74486 12.0591 10.9235 8.15787C12.1022 4.25662 13.084 1.00605 13.1053 0.934393C13.1413 0.813359 13.285 0.805391 15.0981 0.823692L17.0521 0.843319L18.5819 5.41888C19.4233 7.93544 20.1609 10.153 20.2212 10.3468L20.3307 10.6991L20.1675 10.5866C19.9449 10.4332 19.6399 10.4454 19.4268 10.6159C19.252 10.7558 19.2496 10.7753 19.2577 12.0734C19.2622 12.7971 19.2484 13.3394 19.2268 13.2785C19.2054 13.2176 18.9612 12.5221 18.6842 11.7329C18.3516 10.7849 18.1656 10.3467 18.1362 10.4414C17.9702 10.9758 11.9064 33.8327 11.8474 34.1464C11.75 34.6642 11.8718 35.2399 12.1617 35.6334C12.4691 36.0509 13.0674 36.4192 14.0942 36.8229L14.9719 37.1682L14.9951 37.4371L15.0185 37.7061L7.50921 37.7061L5.15449e-07 37.7061L0 37.4519ZM20.4878 37.4274C20.4878 37.15 20.4912 37.147 21.248 36.7448C22.2755 36.1987 22.6724 35.8379 23.0058 35.1469C23.243 34.6556 24.5414 30.896 24.7733 30.0292C24.8622 29.6969 24.8532 29.6678 22.8544 23.8669L20.8463 18.0386L20.4819 15.2711C20.2815 13.749 20.1164 12.4621 20.1151 12.4114C20.1137 12.3606 20.1603 12.3191 20.2185 12.3191C20.281 12.3191 20.6471 12.9469 21.1115 13.8505L21.8986 15.3818L23.7904 21.0643C24.8309 24.1897 25.708 26.7934 25.7397 26.8501C25.7805 26.9234 25.8205 26.8806 25.8778 26.7025C25.9221 26.5646 26.7164 24.1104 27.6428 21.2488C28.5691 18.3873 29.3504 15.9697 29.379 15.8764C29.423 15.7323 29.541 15.8877 30.1631 16.9096C31.4537 19.0293 32.592 20.6926 34.0559 22.5976C34.7171 23.458 34.8297 23.6434 34.7886 23.8044C34.7619 23.9092 34.0458 26.2745 33.1974 29.0608C31.8506 33.484 31.6503 34.2065 31.6193 34.7541C31.559 35.8186 31.8118 36.0831 33.5103 36.7323L34.6342 37.1619L34.6575 37.434L34.6808 37.7061L27.5843 37.7061L20.4878 37.7061L20.4878 37.4274ZM43.6023 37.4266L43.6023 37.1471L44.3507 36.9059C45.6829 36.4764 46.1479 35.9992 46.177 35.0316C46.1859 34.7331 46.2201 34.5654 46.2665 34.5925C46.3078 34.6166 46.6961 34.8743 47.1295 35.1653C48.208 35.8894 49.6424 36.729 50.6048 37.1997C51.0461 37.4155 51.4072 37.6178 51.4072 37.6491C51.4072 37.6805 49.6511 37.7061 47.5048 37.7061L43.6023 37.7061L43.6023 37.4266ZM91.1822 37.4292L91.1822 37.1523L91.9262 36.8672C93.3295 36.3294 93.7483 35.981 94.0171 35.1278C94.1379 34.7447 94.1465 33.6894 94.1465 19.3669C94.1465 2.73457 94.1679 3.59478 93.738 2.92815C93.4643 2.50373 92.9852 2.20152 91.9942 1.82795L91.1822 1.5219L91.1822 1.23792L91.1822 0.954016L98.3491 0.954016L105.516 0.954016L105.516 1.23246L105.516 1.51091L104.977 1.69142C103.648 2.13636 102.944 2.90453 102.744 4.12739C102.695 4.42332 102.665 6.37384 102.664 9.21954L102.663 13.832L102.195 13.8478C101.226 13.8805 100.713 14.2544 100.714 14.9262C100.715 15.7081 101.246 16.4053 102.158 16.8238L102.664 17.0562L102.664 18.1931L102.664 19.33L105.773 19.33L108.882 19.33L109.068 19.7296C109.171 19.9494 109.277 20.1984 109.304 20.2831L109.354 20.437L106.006 20.437L102.659 20.437L102.682 27.614C102.703 34.1713 102.716 34.8234 102.834 35.1665C103.114 35.9791 103.528 36.3446 104.72 36.8301L105.513 37.1526L105.514 37.4293L105.516 37.7061L98.3492 37.7061L91.1822 37.7061L91.1822 37.4292ZM113.396 37.4281L113.396 37.1501L114.135 36.8727C115.342 36.4194 115.779 36.0747 116.077 35.3394C116.201 35.0356 116.212 34.4952 116.231 27.7247L116.252 20.437L113.229 20.437L110.206 20.437L110.04 20.0127C109.949 19.7793 109.853 19.5302 109.826 19.4592C109.781 19.3374 109.963 19.33 113.013 19.33L116.248 19.33L116.248 17.7589L116.248 16.1877L116.452 16.1907C116.751 16.1949 116.768 15.968 116.481 15.8059L116.253 15.6771L116.232 9.66241C116.212 4.11197 116.2 3.62245 116.077 3.32069C115.779 2.58417 115.159 2.09813 114.046 1.72647L113.396 1.5095L113.396 1.23172L113.396 0.954019L120.605 0.954019L127.814 0.954019L127.791 1.23077C127.769 1.49482 127.747 1.51541 127.317 1.6791C125.857 2.23562 125.437 2.52676 125.087 3.22593L124.841 3.71839L124.841 19.3285L124.841 34.9386L125.012 35.3035C125.379 36.0876 125.677 36.319 127.008 36.8581C127.762 37.1634 127.768 37.1674 127.791 37.4358L127.814 37.7061L120.605 37.7061L113.396 37.7061L113.396 37.4281ZM46.8856 33.7752C46.1541 33.2542 45.9133 33.0415 45.8639 32.8722C45.8282 32.7505 44.3037 27.5365 42.4761 21.2857C40.6484 15.0349 39.1306 9.89548 39.1031 9.86463C39.0756 9.83385 38.756 10.7843 38.3929 11.9768L37.7325 14.1449L37.3841 14.0382C37.158 13.9689 36.8722 13.9453 36.5698 13.9709C35.6189 14.0514 35.1691 14.4955 35.3445 15.1806C35.5066 15.8137 36.2016 16.6618 36.6976 16.8318L36.899 16.9008L36.0692 19.623L35.2394 22.3451L34.5384 21.4095C33.0186 19.381 31.6183 17.2922 30.4166 15.2616L29.8764 14.3486L32.0699 7.59596L34.2635 0.843319L36.2156 0.823692L38.1676 0.804062L40.134 7.61323C41.2155 11.3583 42.1659 14.6472 42.2461 14.9219C42.3262 15.1966 42.3591 15.4016 42.3192 15.3773C42.2792 15.353 42.0642 15.0774 41.8414 14.7647C41.6186 14.4521 41.3695 14.1367 41.2877 14.064C41.089 13.8871 40.7203 13.9263 40.6929 14.1272C40.6708 14.2893 42.0441 16.8516 42.365 17.2471C42.5288 17.449 42.6016 17.486 42.7652 17.4507L42.9652 17.4075L45.2835 25.435C46.5586 29.8502 47.6754 33.6868 47.7653 33.9608C47.8552 34.2348 47.9094 34.4584 47.8856 34.4578C47.8619 34.4571 47.4119 34.15 46.8856 33.7752ZM88.5235 17.0942C88.4899 16.9807 88.4834 16.8672 88.509 16.8421C88.5929 16.7594 88.6424 16.8773 88.6133 17.0909L88.5847 17.3006L88.5235 17.0942ZM97.6762 16.8924C98.0269 16.5684 97.8318 16.0447 97.1972 15.6059C96.8922 15.3951 96.8293 15.3813 96.14 15.3745C95.7368 15.3704 95.3682 15.3436 95.3208 15.3148C95.2155 15.2507 95.2078 14.868 95.3082 14.6836C95.4787 14.3702 96.3846 14.2888 97.0691 14.5253C97.55 14.6916 97.9422 14.9492 98.6417 15.5583C99.1876 16.0337 99.3623 16.1063 99.3623 15.8578C99.3623 15.1693 97.7996 14.0582 96.5662 13.8696C95.7062 13.7381 94.9047 13.9335 94.5659 14.3571C94.2294 14.7777 94.4339 15.6824 94.9949 16.2554C95.7189 16.9948 97.1876 17.3437 97.6762 16.8924ZM54.8969 16.7207C54.1948 16.3977 53.6262 15.6098 53.5322 14.8298C53.4957 14.5265 53.5103 14.454 53.6156 14.4143C53.7952 14.3465 54.0111 14.4602 54.4648 14.8617C54.8884 15.2366 55.9851 16.4882 55.9851 16.5968C55.9851 16.7393 55.7373 16.8947 55.5107 16.8939C55.3795 16.8935 55.1033 16.8156 54.8969 16.7207ZM96.4738 16.4846C96.1171 16.364 95.7975 16.138 95.7975 16.0064C95.7975 15.8685 96.1719 15.7872 96.448 15.865C96.7581 15.9525 96.9608 16.1421 96.9608 16.3447C96.9608 16.565 96.8261 16.6037 96.4738 16.4846ZM102.364 16.2886C102.043 16.0748 102.03 15.9279 102.325 15.8503C102.61 15.7754 102.68 15.8491 102.651 16.1895L102.627 16.4632L102.364 16.2886ZM36.8789 16.0515C36.3142 15.6626 35.9983 14.6208 36.4064 14.4935C36.5797 14.4394 37.0365 14.5761 37.3078 14.7632L37.5048 14.899L37.313 15.5278C37.2076 15.8737 37.1012 16.1567 37.0765 16.1567C37.0518 16.1567 36.9628 16.1094 36.8789 16.0515ZM124.156 15.8301C124.139 15.3273 124.127 15.325 121.876 15.3714C119.684 15.4166 119.349 15.4584 119.387 15.6816C119.401 15.7602 119.456 15.8692 119.509 15.9236C119.66 16.0763 120.551 16.1388 122.439 16.1289L124.165 16.1198L124.156 15.8301ZM101.632 15.3339C101.52 15.2237 101.509 14.8722 101.612 14.6836C101.7 14.5219 102.066 14.3855 102.413 14.3855L102.664 14.3855L102.664 14.8652L102.664 15.3449L102.345 15.3459C102.17 15.3464 101.959 15.3647 101.876 15.3865C101.794 15.4084 101.684 15.3847 101.632 15.3339Z" fill="rgb(255,153,214)" fill-rule="evenodd" transform="matrix(1,0,0,-1,3.09277,45.9101)" />
		</g>
		<g id="g16">
			<path id="path18" d="M54.1911 33.214C49.3685 32.775 44.0945 30.3094 38.8313 26.0332C32.2322 20.6715 26.0953 12.8561 22.7494 5.5527C22.3049 4.58223 22.0654 4.18857 21.9725 4.27516C21.9439 4.30176 21.9908 5.26091 22.0768 6.4066C22.4123 10.8823 22.4294 11.9285 22.1843 13.0082C21.9201 14.1723 21.247 14.5697 20.3806 14.0729C19.661 13.6602 19.0464 12.6994 17.0614 8.88379C16.2277 7.28145 15.4958 5.92997 15.4348 5.8805C15.1516 5.65045 15.1322 5.45965 16.2961 14.3695C16.5988 16.6867 16.86 19.2211 16.9455 20.6702C16.9921 21.4591 16.985 21.5364 16.861 21.5829C16.6241 21.6718 16.3485 21.4516 16.248 21.0929C16.1972 20.912 16.0005 19.4078 15.8108 17.7505C15.6211 16.0931 15.2651 13.166 15.0197 11.2459C14.1925 4.77274 14.1851 4.11655 14.9395 4.11655C15.167 4.11655 15.2802 4.16756 15.466 4.35351C15.6126 4.50021 16.3881 5.92181 17.5008 8.08354C19.6836 12.3241 20.5196 13.66 20.9426 13.5837C21.1468 13.5469 21.3209 13.0902 21.4183 12.3358C21.4899 11.7809 21.49 11.2102 21.4188 9.69146C21.2891 6.92712 20.9769 3.04406 20.7646 1.55492C20.6349 0.645082 20.6047 0.239593 20.6591 0.140077C20.7596 -0.043818 21.188 -0.0474925 21.3559 0.134048C21.4238 0.207475 21.9315 1.35677 22.4842 2.68811C23.5734 5.312 24.1612 6.51884 25.2792 8.42677C27.4222 12.084 29.9487 15.5611 33.0149 19.0734C34.204 20.4355 37.7074 23.8751 39.0079 24.9572C44.2519 29.3208 49.0906 31.7413 53.7779 32.3455C54.801 32.4774 56.8727 32.4593 57.8527 32.3099C61.048 31.8228 64.2927 30.0574 66.486 27.6124C67.0788 26.9515 67.2158 26.8631 67.4202 27.0092C67.5511 27.103 67.5516 27.1198 67.4288 27.3715C67.2502 27.7381 65.686 29.2971 64.7814 30.0101C61.6353 32.4899 58.0739 33.5673 54.1911 33.214ZM46.0238 17.0976C45.9622 17.0374 45.7339 16.5643 45.5164 16.0463C45.2989 15.5283 44.7035 14.1524 44.1932 12.9886C42.5134 9.15698 42.2834 8.15512 42.9368 7.51569C43.1085 7.34767 43.1673 7.33467 43.5988 7.36855C44.1278 7.41007 44.756 7.66048 45.2408 8.02297C45.7126 8.37584 46.5675 9.20806 46.5675 9.31456C46.5675 9.51175 46.3166 9.39144 45.7617 8.92811C45.1711 8.43493 44.1315 7.86495 43.8227 7.86495C43.437 7.86495 43.2747 8.25222 43.415 8.83748C43.5977 9.59951 44.6021 12.1764 45.9783 15.4145C46.3085 16.1913 46.5677 16.9024 46.5543 16.9947C46.5247 17.1989 46.1931 17.2633 46.0238 17.0976ZM106.036 17.0976C105.974 17.0374 105.753 16.5808 105.543 16.0831C105.334 15.5853 104.739 14.2088 104.22 13.0242C102.523 9.14882 102.294 8.15652 102.949 7.51569C103.121 7.34767 103.179 7.33467 103.611 7.36855C104.14 7.41007 104.768 7.66048 105.253 8.02297C105.725 8.37584 106.58 9.20806 106.58 9.31456C106.58 9.51175 106.329 9.39144 105.774 8.92811C105.183 8.43493 104.144 7.86495 103.835 7.86495C103.449 7.86495 103.287 8.25222 103.427 8.83748C103.61 9.59951 104.614 12.1764 105.99 15.4145C106.32 16.1913 106.58 16.9024 106.566 16.9947C106.537 17.1989 106.205 17.2633 106.036 17.0976ZM86.016 16.8558C85.8985 16.8095 85.6675 16.3665 84.8054 14.5332C84.44 13.756 83.5621 11.9205 82.8546 10.4544C82.1471 8.98823 81.5682 7.7231 81.5682 7.64306C81.5682 7.52723 81.6191 7.49746 81.8168 7.49746C82.129 7.49746 82.2106 7.56435 82.6525 8.18269C83.1355 8.8588 83.8012 9.5438 84.528 10.1129C85.1322 10.5859 85.3667 10.6785 85.4463 10.4752C85.4699 10.4152 85.4181 10.0265 85.3313 9.61164C85.1335 8.66653 85.1322 8.41987 85.3237 8.23245C85.5217 8.0387 85.7429 8.04701 86.4371 8.27405C87.303 8.55738 88.2529 9.11384 88.2529 9.33778C88.2529 9.48522 87.9363 9.39614 87.1882 9.03813C86.0668 8.50152 85.8796 8.58002 86.0983 9.495C86.2565 10.157 86.2605 10.5979 86.111 10.881C85.8862 11.3063 85.27 11.2692 84.5189 10.7851C83.7749 10.3057 83.6775 10.2624 83.6279 10.389C83.6053 10.4467 83.9127 11.1311 84.311 11.9098C85.4233 14.0844 86.4503 16.4107 86.4503 16.7554C86.4503 16.9041 86.2543 16.9494 86.016 16.8558ZM55.1015 16.7199C55.0387 16.6585 54.574 15.8729 54.069 14.9744C52.6346 12.4221 51.8166 10.9944 51.7487 10.9244C51.7144 10.8891 51.3205 10.856 50.8732 10.8508C50.1476 10.8424 50.0098 10.8188 49.5927 10.6303C48.6915 10.2231 47.9958 9.25752 47.9331 8.32704C47.9041 7.89795 47.9161 7.85694 48.1304 7.64718C48.3158 7.46578 48.4208 7.42397 48.6911 7.42397C48.874 7.42397 49.1386 7.46182 49.279 7.50812C49.7291 7.65644 50.4358 8.20701 51.0773 8.90899C51.4207 9.28472 51.7294 9.60319 51.7633 9.61664C51.8525 9.65199 51.8404 9.52388 51.7068 9.01939C51.492 8.20841 51.7356 7.79146 52.4241 7.79146C53.0692 7.79146 54.065 8.40612 54.5658 9.11339C54.7454 9.36696 54.7641 9.43091 54.6746 9.48632C54.5131 9.58628 54.4988 9.5804 54.0763 9.24305C53.4548 8.74679 52.7774 8.30594 52.6362 8.30594C52.5648 8.30594 52.4702 8.37209 52.4261 8.45287C52.315 8.65594 52.5865 9.42098 53.6132 11.7971C54.53 13.919 54.5979 14.0698 55.3142 15.5698C55.5909 16.1492 55.7988 16.6701 55.7764 16.7274C55.7213 16.8678 55.2472 16.8625 55.1015 16.7199ZM73.8244 16.5383C73.0254 16.125 72.1862 14.6768 71.0557 11.7604C70.7188 10.8912 70.383 10.1201 70.3093 10.0467C70.2327 9.97053 70.0004 9.89012 69.7673 9.85918C69.0568 9.76481 68.9765 9.57562 69.5927 9.44766C69.8507 9.39416 69.9699 9.33102 69.9881 9.23819C70.0438 8.95515 68.8297 6.34016 68.2786 5.55645C67.6485 4.66014 66.947 4.44457 66.0494 4.87137C65.742 5.01749 65.7101 5.01999 65.5947 4.90717C65.4793 4.79427 65.4868 4.7709 65.701 4.5751C66.1461 4.16829 66.8632 4.08627 67.7172 4.34439C68.1501 4.47522 68.2972 4.56738 68.6849 4.95075C69.1962 5.45642 69.8237 6.57344 70.5283 8.23245C70.7429 8.73775 70.9809 9.21482 71.0572 9.29258C71.1624 9.39974 71.3418 9.4445 71.7977 9.47729C72.5147 9.52888 72.7178 9.65133 72.2825 9.76959C72.1226 9.81302 71.9174 9.84874 71.8264 9.84896C71.7354 9.84917 71.5743 9.88799 71.4686 9.93518C71.243 10.0357 71.2197 9.92533 71.7835 11.4296C72.3087 12.831 72.6962 13.7286 73.1956 14.7003C73.704 15.6897 73.9692 16.04 74.3944 16.2838C74.6705 16.4421 74.7208 16.5007 74.6512 16.5827C74.5305 16.7251 74.1455 16.7044 73.8244 16.5383ZM108.954 11.2434C108.242 11.0345 108.069 10.3081 108.504 9.34418C108.716 8.87394 108.728 8.65528 108.551 8.48205C108.479 8.41141 108.099 8.1502 107.706 7.90156C106.624 7.21582 106.273 6.74977 106.54 6.35155C106.743 6.04815 107.133 5.92872 107.74 5.98392C108.76 6.07645 109.58 6.36427 109.877 6.7336C110.075 6.98004 110.076 7.27726 109.88 7.89928C109.754 8.29764 109.742 8.41097 109.819 8.50123C109.939 8.64323 110.761 9.04666 111.368 9.26171C111.728 9.38953 111.837 9.46185 111.837 9.57357C111.837 9.76768 111.672 9.73615 110.479 9.31404C109.96 9.13023 109.5 9.00183 109.457 9.02873C109.345 9.09892 109.088 9.61605 108.992 9.96237C108.822 10.5817 109.207 11.1292 109.613 10.8441C109.7 10.7827 109.846 10.6797 109.936 10.6154C110.142 10.4694 110.41 10.5398 110.41 10.7398C110.41 11.1624 109.616 11.4371 108.954 11.2434ZM37.5761 10.8105C37.4503 10.6782 35.9672 8.05333 35.8602 7.77352C35.8053 7.62991 36.0646 7.49518 36.2865 7.55193C36.3565 7.56986 36.6332 7.88737 36.9014 8.25758C37.6704 9.3189 38.0804 9.7238 38.7046 10.0381C39.3776 10.3772 39.5073 10.353 39.5073 9.88843C39.5073 9.54762 39.5658 9.49735 39.8419 9.60105C40.1216 9.70608 40.299 10.4417 40.0931 10.6432C39.9569 10.7765 39.3531 10.7491 38.8192 10.5853C38.5574 10.505 38.3182 10.4389 38.2877 10.4383C38.2573 10.4378 38.183 10.5532 38.1226 10.6946C37.9968 10.9894 37.7883 11.0336 37.5761 10.8105ZM91.4451 10.4813C90.9185 10.318 90.5495 10.0938 90.1925 9.7202C89.7851 9.29398 89.5546 8.70144 89.6344 8.28522C89.7685 7.5861 90.9286 7.23338 92.1066 7.53363C92.943 7.74677 93.9093 8.34343 94.2909 8.88217C94.4894 9.16249 94.5522 9.48191 94.4087 9.48191C94.3657 9.48191 94.0408 9.23408 93.6868 8.93127C92.8147 8.18519 92.2186 7.9017 91.5218 7.9017C91.2318 7.9017 90.8875 7.94588 90.7568 7.9999C90.4626 8.12139 90.3015 8.45559 90.4021 8.73547C90.4711 8.92722 90.4849 8.9309 91.19 8.94119C92.0142 8.95331 92.3552 9.07929 92.7478 9.5169C93.0393 9.84184 93.0683 10.2085 92.8204 10.4345C92.6908 10.5527 92.5597 10.5834 92.2007 10.5795C91.9504 10.5767 91.6103 10.5326 91.4451 10.4813ZM97.8478 10.5046C96.7363 10.2482 95.7807 9.13456 95.9436 8.28522C96.0407 7.77889 96.7067 7.42397 97.5599 7.42397C98.6315 7.42397 99.9454 8.05745 100.583 8.8818C100.784 9.14147 100.867 9.48191 100.729 9.48191C100.693 9.48191 100.363 9.2293 99.997 8.92061C99.1169 8.17828 98.5322 7.90369 97.8293 7.90251C97.5401 7.90207 97.1966 7.94588 97.0659 7.9999C96.7718 8.12139 96.6107 8.45559 96.7113 8.73547C96.7802 8.92722 96.794 8.9309 97.4991 8.94119C98.3233 8.95331 98.6643 9.07929 99.057 9.5169C99.2899 9.77657 99.3696 10.1394 99.2365 10.3345C99.0723 10.5751 98.4723 10.6486 97.8478 10.5046ZM32.8977 10.4247C32.7531 10.382 32.4746 10.352 32.2788 10.3578C31.8357 10.371 31.5892 10.2489 31.1784 9.81281C30.4996 9.0923 30.3146 8.25545 30.7526 7.88686C31.1782 7.52863 32.1642 7.45976 32.785 7.74486C33.4846 8.06619 34.2439 9.03284 34.248 9.60708C34.2527 10.2664 33.6332 10.6414 32.8977 10.4247ZM50.9578 10.4256C51.2912 10.277 51.2026 10.0594 50.4716 9.23088C49.8165 8.48833 49.4247 8.13127 49.059 7.94348C48.7673 7.79369 48.6706 7.88968 48.6706 8.32869C48.6706 9.10666 49.2819 9.94961 50.1247 10.3336C50.5618 10.5327 50.6866 10.5466 50.9578 10.4256ZM66.0207 10.4247C65.8761 10.382 65.5976 10.352 65.4018 10.3578C65.206 10.3637 64.9479 10.3189 64.8283 10.2583C64.3276 10.005 63.6196 8.97904 63.618 8.50439C63.6168 8.20268 63.8114 7.88546 64.0879 7.73788C64.269 7.64123 64.5025 7.6083 65.0067 7.60852C65.8245 7.60881 66.0933 7.72523 66.6816 8.33395C67.294 8.96758 67.5048 9.55865 67.286 10.0287C67.1128 10.4006 66.5436 10.5788 66.0207 10.4247ZM92.1988 10.0657C92.3727 9.79031 91.889 9.33573 91.4213 9.33521C90.7719 9.33448 90.7718 9.63589 91.4209 9.95245C91.8338 10.1538 92.1171 10.1951 92.1988 10.0657ZM98.5281 9.95002C98.567 9.683 98.246 9.39901 97.8566 9.35609C97.4634 9.31272 97.1737 9.42613 97.2408 9.59716C97.2652 9.65926 97.4582 9.8081 97.6699 9.9279C98.1267 10.1865 98.4923 10.1959 98.5281 9.95002ZM33.3316 9.95547C33.9305 9.54498 32.6727 8.02018 31.7297 8.01357C31.4345 8.01151 31.3204 8.12859 31.3204 8.43383C31.3204 8.9722 31.9548 9.74754 32.5713 9.96267C32.9522 10.0956 33.1297 10.0939 33.3316 9.95547ZM66.4546 9.95547C67.0535 9.54498 65.7958 8.02018 64.8528 8.01357C64.5574 8.01151 64.4434 8.12867 64.4434 8.43457C64.4434 8.8502 64.8103 9.42775 65.2744 9.74239C65.7505 10.0652 66.1811 10.143 66.4546 9.95547ZM0.611536 9.56063C0.24463 9.51727 0 9.36571 0 9.18175C0 9.05158 0.406339 9.01858 2.42211 8.98485L4.58134 8.94876L4.69656 9.21857C4.75987 9.36696 4.7918 9.51999 4.76739 9.55865C4.71804 9.63678 1.26972 9.63847 0.611536 9.56063ZM115.165 9.56181C114.732 9.51029 114.73 9.50896 114.661 9.28847C114.626 9.17749 114.651 9.11538 114.745 9.07547C114.819 9.04445 115.851 9.00352 117.038 8.98448L119.198 8.94993L119.313 9.21916C119.376 9.36726 119.408 9.51999 119.384 9.55865C119.335 9.63612 115.812 9.63876 115.165 9.56181ZM109.174 7.54127C109.245 7.07764 109.167 6.91565 108.795 6.75469C108.43 6.59689 107.67 6.49811 107.375 6.57043C107.036 6.65378 107.137 6.86479 107.725 7.29733C108.814 8.09919 109.081 8.14418 109.174 7.54127Z" fill="rgb(13,13,13)" fill-rule="evenodd" transform="matrix(1,0,0,-1,7.96902,39.371)" />
		</g>
	</g>
</svg>
