<svg viewBox="0 0 20 20" xmlns="http://www.w3.org/2000/svg" xmlns:xlink="http://www.w3.org/1999/xlink" width="20.000000" height="20.000000" fill="currentColor">
	<rect id="Component 3" width="20.000000" height="20.000000" x="0.000000" y="0.000000" />
	<path id="Vector" d="M14.6665 8.33203C14.6665 9.3929 14.2451 10.4103 13.4949 11.1605C12.7448 11.9106 11.7274 12.332 10.6665 12.332C9.60564 12.332 8.58822 11.9106 7.83808 11.1605C7.08793 10.4103 6.6665 9.3929 6.6665 8.33203" fill-rule="nonzero" stroke="rgb(13,13,13)" stroke-linecap="round" stroke-linejoin="round" stroke-width="1.000000" />
	<path id="Vector" d="M2.58594 5.0293L20.3799 5.0293" stroke="rgb(13,13,13)" stroke-linecap="round" stroke-linejoin="round" stroke-width="1.000000" />
	<path id="Vector" d="M2.5 6.33497L2.5 19.668C2.5 20.1984 2.71071 20.7071 3.08579 21.0822C3.46086 21.4573 3.96957 21.668 4.5 21.668L18.5 21.668C19.0304 21.668 19.5391 21.4573 19.9142 21.0822C20.2893 20.7071 20.5 20.1984 20.5 19.668L20.5 6.33497C20.5 5.90223 20.3596 5.48116 20.1 5.13497L18.1 2.46797C17.9137 2.21958 17.6721 2.01797 17.3944 1.87911C17.1167 1.74026 16.8105 1.66797 16.5 1.66797L6.5 1.66797C6.18951 1.66797 5.88328 1.74026 5.60557 1.87911C5.32786 2.01797 5.08629 2.21958 4.9 2.46797L2.9 5.13497C2.64036 5.48116 2.5 5.90223 2.5 6.33497Z" fill-rule="nonzero" stroke="rgb(13,13,13)" stroke-linecap="round" stroke-linejoin="round" stroke-width="1.000000" />
</svg>
