<svg viewBox="0 0 26 26" xmlns="http://www.w3.org/2000/svg" xmlns:xlink="http://www.w3.org/1999/xlink" width="26.000000" height="26.000000" fill="none" customFrame="#000000">
	<path id="Vector" d="M14.95 26C21.2043 25.0535 26 19.6268 26 13.0732C26 5.85288 20.1799 0 13 0C5.8201 0 0 5.85288 0 13.0732C0 19.6268 4.7957 25.0548 11.05 26L11.05 16.9952L9.1 16.9952C8.58283 16.9952 8.08684 16.7886 7.72114 16.4208C7.35545 16.0531 7.15 15.5543 7.15 15.0342C7.15 14.5141 7.35545 14.0153 7.72114 13.6476C8.08684 13.2798 8.58283 13.0732 9.1 13.0732L11.05 13.0732L11.05 10.4586C11.05 9.24504 11.5294 8.08121 12.3827 7.22311C13.236 6.36502 14.3933 5.88294 15.6 5.88294L16.25 5.88294C16.7672 5.88294 17.2632 6.08955 17.6289 6.4573C17.9946 6.82506 18.2 7.32384 18.2 7.84393C18.2 8.36401 17.9946 8.86279 17.6289 9.23055C17.2632 9.5983 16.7672 9.80491 16.25 9.80491L15.6 9.80491C15.4276 9.80491 15.2623 9.87377 15.1404 9.99636C15.0185 10.1189 14.95 10.2852 14.95 10.4586L14.95 13.0732L16.9 13.0732C17.4172 13.0732 17.9132 13.2798 18.2789 13.6476C18.6446 14.0153 18.85 14.5141 18.85 15.0342C18.85 15.5543 18.6446 16.0531 18.2789 16.4208C17.9132 16.7886 17.4172 16.9952 16.9 16.9952L14.95 16.9952L14.95 26Z" fill="rgb(13,13,13)" fill-rule="evenodd" />
</svg>
