<svg viewBox="0 0 20 20" xmlns="http://www.w3.org/2000/svg" xmlns:xlink="http://www.w3.org/1999/xlink" width="20.000000" height="20.000000" fill="none">
	<rect id="Component 3" width="20.000000" height="20.000000" x="0.000000" y="0.000000" />
	<path id="Vector" d="M2.63476 5.72013C3.2653 4.80321 4.15914 4.09912 5.19823 3.70087C6.23733 3.30261 7.37278 3.22891 8.45464 3.48951C9.53649 3.75011 10.5139 4.33275 11.2576 5.16047C11.31 5.21648 11.3733 5.26114 11.4437 5.29167C11.5141 5.3222 11.5899 5.33795 11.6666 5.33795C11.7433 5.33795 11.8192 5.3222 11.8896 5.29167C11.9599 5.26114 12.0232 5.21648 12.0756 5.16047C12.8171 4.32737 13.7946 3.73983 14.8783 3.47607C15.9619 3.2123 17.1001 3.28481 18.1415 3.68395C19.1829 4.08309 20.078 4.78992 20.7077 5.71037C21.3375 6.63082 21.6719 7.72123 21.6666 8.83647C21.6666 11.1265 20.1666 12.8365 18.6666 14.3365L13.1746 19.6495C12.9883 19.8635 12.7586 20.0354 12.5007 20.1538C12.2428 20.2722 11.9627 20.3343 11.6789 20.3361C11.3952 20.3379 11.1143 20.2793 10.8549 20.1642C10.5956 20.0491 10.3637 19.8801 10.1746 19.6685L4.66663 14.3365C3.16663 12.8365 1.66663 11.1365 1.66663 8.83647C1.66665 7.72367 2.00422 6.63705 2.63476 5.72013Z" fill-rule="nonzero" stroke="rgb(13,13,13)" stroke-linecap="round" stroke-linejoin="round" stroke-width="1.000000" />
</svg>
