<svg viewBox="0 0 26 26" xmlns="http://www.w3.org/2000/svg" xmlns:xlink="http://www.w3.org/1999/xlink" width="26.000000" height="26.000000" fill="none" customFrame="#000000">
	<path id="Vector" d="M12.9393 0C9.50204 0.0160409 6.21101 1.39276 3.78614 3.82899C1.36127 6.26523 -3.74281e-05 9.56267 7.71805e-10 13C7.71811e-10 16.4478 1.36964 19.7544 3.80761 22.1924C6.24558 24.6304 9.55219 26 13 26C16.4478 26 19.7544 24.6304 22.1924 22.1924C24.6304 19.7544 26 16.4478 26 13C26 9.55219 24.6304 6.24558 22.1924 3.80761C19.7544 1.36964 16.4478 2.76631e-15 13 7.21645e-16L12.9393 0ZM18.3148 7.826C18.4232 7.82383 18.6626 7.85092 18.8186 7.97767C18.9228 8.06728 18.989 8.19314 19.0038 8.32975C19.0212 8.4305 19.0428 8.66125 19.0255 8.84108C18.8305 10.8973 17.9833 15.8849 17.5522 18.187C17.3702 19.162 17.0116 19.4881 16.6638 19.5195C15.9098 19.5899 15.3368 19.0212 14.6055 18.5423C13.4615 17.7916 12.8147 17.3247 11.7043 16.5923C10.4206 15.7473 11.2526 15.2815 11.9838 14.5232C12.1756 14.3238 15.5014 11.2981 15.5664 11.024C15.574 10.9893 15.5816 10.8615 15.5058 10.7943C15.4299 10.7272 15.3173 10.7499 15.236 10.7683C15.1212 10.7951 13.2936 12.003 9.75325 14.3921C9.23325 14.7496 8.76308 14.9229 8.34275 14.9121C7.87908 14.9034 6.98642 14.651 6.32233 14.4354C5.50767 14.17 4.86092 14.0303 4.91725 13.5807C4.94614 13.3467 5.26861 13.1073 5.88467 12.8624C9.67417 11.2114 12.2012 10.123 13.4658 9.59725C17.0755 8.09575 17.8263 7.83467 18.3148 7.826Z" fill="rgb(13,13,13)" fill-rule="nonzero" />
</svg>
