<svg viewBox="0 0 26 26" xmlns="http://www.w3.org/2000/svg" xmlns:xlink="http://www.w3.org/1999/xlink" width="26.000000" height="26.000000" fill="none" customFrame="#000000">
	<path id="Vector" d="M6.56163 0.433333C8.63007 0.202222 10.789 0 13 0C15.211 0 17.3699 0.202222 19.4384 0.433333C21.0105 0.613601 22.475 1.3219 23.5924 2.44243C24.7098 3.56296 25.4139 5.02943 25.5898 6.60207C25.8113 8.66089 26 10.8044 26 13C26 15.1956 25.8113 17.3391 25.5898 19.3979C25.4139 20.9706 24.7098 22.437 23.5924 23.5576C22.475 24.6781 21.0105 25.3864 19.4384 25.5667C17.3699 25.7978 15.211 26 13 26C10.789 26 8.63007 25.7978 6.56163 25.5667C4.98949 25.3864 3.52501 24.6781 2.40762 23.5576C1.29024 22.437 0.586065 20.9706 0.410222 19.3979C0.188741 17.3391 0 15.1956 0 13C0 10.8044 0.188741 8.66089 0.410222 6.60207C0.586065 5.02943 1.29024 3.56296 2.40762 2.44243C3.52501 1.3219 4.98949 0.613601 6.56163 0.433333ZM15.5653 5.06904C15.4988 4.78087 15.3286 4.52726 15.0871 4.35659C14.8455 4.18593 14.5496 4.11016 14.2558 4.14373C13.962 4.17731 13.6908 4.31788 13.494 4.53862C13.2972 4.75937 13.1885 5.04485 13.1887 5.34059L13.1887 16.4667C13.1887 17.0578 13.0134 17.6357 12.685 18.1273C12.3566 18.6188 11.8897 19.0019 11.3436 19.2282C10.7974 19.4544 10.1964 19.5136 9.61657 19.3983C9.03675 19.2829 8.50416 18.9983 8.08614 18.5802C7.66811 18.1622 7.38343 17.6296 7.2681 17.0498C7.15277 16.47 7.21196 15.869 7.43819 15.3228C7.66443 14.7766 8.04754 14.3098 8.53908 13.9814C9.03063 13.6529 9.60853 13.4776 10.1997 13.4776C10.5189 13.4776 10.8251 13.3508 11.0509 13.1251C11.2766 12.8993 11.4034 12.5932 11.4034 12.2739C11.4034 11.9547 11.2766 11.6485 11.0509 11.4228C10.8251 11.197 10.5189 11.0702 10.1997 11.0702C9.13239 11.0702 8.08904 11.3867 7.2016 11.9797C6.31416 12.5727 5.62248 13.4155 5.21404 14.4015C4.80559 15.3876 4.69873 16.4727 4.90695 17.5195C5.11517 18.5663 5.62914 19.5278 6.38384 20.2825C7.13855 21.0372 8.1001 21.5512 9.14691 21.7594C10.1937 21.9676 11.2788 21.8608 12.2648 21.4523C13.2509 21.0439 14.0937 20.3522 14.6867 19.4648C15.2797 18.5773 15.5961 17.534 15.5961 16.4667L15.5961 9.74518C16.7517 10.7274 18.2424 11.2667 19.9911 11.2667C20.3104 11.2667 20.6165 11.1398 20.8423 10.9141C21.068 10.6884 21.1948 10.3822 21.1948 10.063C21.1948 9.74372 21.068 9.43755 20.8423 9.21182C20.6165 8.98608 20.3104 8.85926 19.9911 8.85926C18.72 8.85926 17.7763 8.46637 17.081 7.84815C16.3723 7.21644 15.8465 6.27659 15.5653 5.06904Z" fill="rgb(13,13,13)" fill-rule="evenodd" />
</svg>
